STARTFONT 2.1
COMMENT
COMMENT Converted from OpenType font "Andika-Bold-Stripped.otf" by "otf2bdf 3.0".
COMMENT
FONT -FreeType-Andika-Bold-R-Normal--25-180-100-100-P-129-ISO10646-1
SIZE 18 100 100
FONTBOUNDINGBOX 27 26 -2 -6
STARTPROPERTIES 19
FOUNDRY "FreeType"
FAMILY_NAME "Andika"
WEIGHT_NAME "Bold"
SLANT "R"
SETWIDTH_NAME "Normal"
ADD_STYLE_NAME ""
PIXEL_SIZE 25
POINT_SIZE 180
RESOLUTION_X 100
RESOLUTION_Y 100
SPACING "P"
AVERAGE_WIDTH 129
CHARSET_REGISTRY "ISO10646"
CHARSET_ENCODING "1"
FONT_ASCENT 30
FONT_DESCENT 9
COPYRIGHT "Copyright (c) 2004-2022 SIL International"
_OTF_FONTFILE "Andika-Bold-Stripped.otf"
_OTF_PSNAME "Andika-Bold"
ENDPROPERTIES
CHARS 67
STARTCHAR 0020
ENCODING 32
SWIDTH 280 0
DWIDTH 7 0
BBX 0 0 0 0
BITMAP
ENDCHAR
STARTCHAR 002D
ENCODING 45
SWIDTH 440 0
DWIDTH 11 0
BBX 9 3 1 6
BITMAP
FF80
FF80
FF80
ENDCHAR
STARTCHAR 002F
ENCODING 47
SWIDTH 520 0
DWIDTH 13 0
BBX 13 23 0 -3
BITMAP
0038
0038
0070
0070
00E0
00E0
00C0
01C0
0180
0380
0380
0700
0700
0E00
0E00
1C00
1C00
1800
3800
3800
7000
7000
E000
ENDCHAR
STARTCHAR 0030
ENCODING 48
SWIDTH 600 0
DWIDTH 15 0
BBX 13 18 1 0
BITMAP
0FC0
3FE0
3FF0
78F0
7078
F078
F078
F038
F038
F038
F038
F078
F078
F078
78F0
7FF0
3FE0
1FC0
ENDCHAR
STARTCHAR 0031
ENCODING 49
SWIDTH 600 0
DWIDTH 15 0
BBX 11 18 2 0
BITMAP
0F00
3F00
FF00
FF00
6F00
0F00
0F00
0F00
0F00
0F00
0F00
0F00
0F00
0F00
0F00
FFE0
FFE0
FFE0
ENDCHAR
STARTCHAR 0032
ENCODING 50
SWIDTH 600 0
DWIDTH 15 0
BBX 12 18 2 0
BITMAP
3F00
FFC0
FFC0
E1E0
81E0
00E0
01E0
01E0
01C0
0380
0780
0F00
1E00
3C00
7800
FFF0
FFF0
FFF0
ENDCHAR
STARTCHAR 0033
ENCODING 51
SWIDTH 600 0
DWIDTH 15 0
BBX 13 18 1 0
BITMAP
1FC0
7FE0
7FF0
60F0
4070
00F0
01E0
0FC0
0F00
0FE0
01F0
0078
0078
0078
6078
FFF0
FFE0
3FC0
ENDCHAR
STARTCHAR 0034
ENCODING 52
SWIDTH 600 0
DWIDTH 15 0
BBX 13 18 1 0
BITMAP
01E0
01E0
03E0
07E0
07E0
0EE0
1CE0
3CE0
38E0
70E0
E0E0
FFF8
FFF8
FFF8
00E0
00E0
00E0
00E0
ENDCHAR
STARTCHAR 0035
ENCODING 53
SWIDTH 600 0
DWIDTH 15 0
BBX 12 18 2 0
BITMAP
FFE0
FFE0
FFE0
F000
F000
F000
F000
FF80
FFC0
E7E0
01E0
00F0
00F0
00E0
81E0
FFE0
FFC0
FF00
ENDCHAR
STARTCHAR 0036
ENCODING 54
SWIDTH 600 0
DWIDTH 15 0
BBX 13 18 1 0
BITMAP
07E0
1FF0
3FF0
3C10
7800
7000
7000
FFE0
FFF0
FCF8
F038
F038
F038
7038
7878
3FF0
3FF0
0FC0
ENDCHAR
STARTCHAR 0037
ENCODING 55
SWIDTH 600 0
DWIDTH 15 0
BBX 13 18 1 0
BITMAP
FFF8
FFF8
FFF8
0070
00E0
01E0
01C0
03C0
0780
0780
0700
0F00
0E00
1E00
1C00
1C00
3C00
3800
ENDCHAR
STARTCHAR 0038
ENCODING 56
SWIDTH 600 0
DWIDTH 15 0
BBX 13 18 1 0
BITMAP
0FC0
3FE0
7FF0
7070
7070
7070
78F0
3FE0
1FC0
3FF0
7070
F038
E038
F038
F078
7FF0
3FE0
1FC0
ENDCHAR
STARTCHAR 0039
ENCODING 57
SWIDTH 600 0
DWIDTH 15 0
BBX 13 18 1 0
BITMAP
1F80
3FE0
7FE0
F0F0
E070
E078
E038
F078
7FF8
3FF8
1F38
0078
0070
0070
00E0
7FE0
7FC0
7F80
ENDCHAR
STARTCHAR 003A
ENCODING 58
SWIDTH 360 0
DWIDTH 9 0
BBX 5 11 2 0
BITMAP
70
F8
78
70
00
00
00
70
78
F8
70
ENDCHAR
STARTCHAR 0041
ENCODING 65
SWIDTH 720 0
DWIDTH 18 0
BBX 16 18 1 0
BITMAP
03C0
07E0
07E0
07E0
0EF0
0E70
0E70
1E78
1C38
1C38
3C3C
3FFC
3FFC
7FFE
700E
700E
F00F
E00F
ENDCHAR
STARTCHAR 0042
ENCODING 66
SWIDTH 680 0
DWIDTH 17 0
BBX 13 18 2 0
BITMAP
FF80
FFE0
FFF0
E0F0
E070
E070
E0F0
FFE0
FFC0
FFF0
E078
E038
E038
E038
E078
FFF0
FFF0
FFC0
ENDCHAR
STARTCHAR 0043
ENCODING 67
SWIDTH 680 0
DWIDTH 17 0
BBX 14 18 1 0
BITMAP
07F0
1FFC
3FFC
3C0C
7800
7000
F000
F000
F000
F000
F000
F000
F000
7804
7C0C
3FFC
1FFC
0FF0
ENDCHAR
STARTCHAR 0044
ENCODING 68
SWIDTH 720 0
DWIDTH 18 0
BBX 15 18 2 0
BITMAP
FF80
FFE0
FFF8
E078
E03C
E01C
E01C
E01E
E01E
E01E
E01E
E01C
E01C
E03C
E078
FFF0
FFE0
FF80
ENDCHAR
STARTCHAR 0045
ENCODING 69
SWIDTH 600 0
DWIDTH 15 0
BBX 11 18 2 0
BITMAP
FFE0
FFE0
FFE0
E000
E000
E000
E000
FFC0
FFC0
FFC0
E000
E000
E000
E000
E000
FFE0
FFE0
FFE0
ENDCHAR
STARTCHAR 0046
ENCODING 70
SWIDTH 600 0
DWIDTH 15 0
BBX 11 18 2 0
BITMAP
FFE0
FFE0
FFE0
E000
E000
E000
E000
E000
FFC0
FFC0
E000
E000
E000
E000
E000
F000
F000
F000
ENDCHAR
STARTCHAR 0047
ENCODING 71
SWIDTH 720 0
DWIDTH 18 0
BBX 15 18 1 0
BITMAP
07F8
0FFE
3FFE
3C0C
7800
7000
F000
F000
F0FE
F0FE
F0FE
F00E
F00E
780E
7C0E
3FFE
1FFE
07F8
ENDCHAR
STARTCHAR 0048
ENCODING 72
SWIDTH 760 0
DWIDTH 19 0
BBX 14 18 2 0
BITMAP
E01C
E01C
E01C
E01C
E01C
E01C
E01C
E01C
FFFC
FFFC
E01C
E01C
E01C
E01C
E01C
E01C
E01C
E01C
ENDCHAR
STARTCHAR 0049
ENCODING 73
SWIDTH 520 0
DWIDTH 13 0
BBX 9 18 2 0
BITMAP
FF80
FF80
FF80
1C00
1C00
1C00
1C00
1C00
1C00
1C00
1C00
1C00
1C00
1C00
1C00
FF80
FF80
FF80
ENDCHAR
STARTCHAR 004A
ENCODING 74
SWIDTH 520 0
DWIDTH 13 0
BBX 10 18 0 0
BITMAP
01C0
01C0
01C0
01C0
01C0
01C0
01C0
01C0
01C0
01C0
01C0
01C0
01C0
01C0
43C0
7FC0
FF80
7F00
ENDCHAR
STARTCHAR 004B
ENCODING 75
SWIDTH 680 0
DWIDTH 17 0
BBX 14 18 2 0
BITMAP
E078
E0F0
E0F0
E1E0
E3C0
E780
E700
EE00
FC00
FE00
EF00
E780
E3C0
E3E0
E1E0
E0F0
E078
E03C
ENDCHAR
STARTCHAR 004C
ENCODING 76
SWIDTH 560 0
DWIDTH 14 0
BBX 11 18 2 0
BITMAP
E000
E000
E000
E000
E000
E000
E000
E000
E000
E000
E000
E000
E000
E000
E000
FFE0
FFE0
FFE0
ENDCHAR
STARTCHAR 004D
ENCODING 77
SWIDTH 920 0
DWIDTH 23 0
BBX 18 18 2 0
BITMAP
7807C0
7807C0
7C07C0
7C0FC0
EC0FC0
EE0FC0
EE0DC0
EE1DC0
E61DC0
E719C0
E739C0
E339C0
E3B9C0
E3B1C0
E3F1C0
E1F1C0
E1E1C0
E1E1C0
ENDCHAR
STARTCHAR 004E
ENCODING 78
SWIDTH 760 0
DWIDTH 19 0
BBX 15 18 2 0
BITMAP
E01E
F01E
F81E
F81E
FC1E
FE1E
EE1E
EF1E
E79E
E39E
E3DE
E1FE
E0FE
E0FE
E07E
E03E
E03E
E01E
ENDCHAR
STARTCHAR 004F
ENCODING 79
SWIDTH 720 0
DWIDTH 18 0
BBX 16 18 1 0
BITMAP
07E0
1FF8
3FFC
3C3E
781E
700E
F00F
F00F
F00F
F00F
F00F
F00F
F00E
781E
7C3C
3FFC
1FF8
0FE0
ENDCHAR
STARTCHAR 0050
ENCODING 80
SWIDTH 640 0
DWIDTH 16 0
BBX 13 18 2 0
BITMAP
FF80
FFE0
FFF0
E0F0
E078
E078
E078
E070
E0F0
FFE0
FFC0
FF00
E000
E000
E000
F000
F000
F000
ENDCHAR
STARTCHAR 0051
ENCODING 81
SWIDTH 760 0
DWIDTH 19 0
BBX 18 21 1 -3
BITMAP
07E000
1FF800
3FFC00
3C3E00
781E00
700E00
F00F00
F00F00
F00F00
F00F00
F00F00
F00F00
F00E00
781E00
7C3C00
3FFC00
1FF800
0FFE00
001FC0
000780
000300
ENDCHAR
STARTCHAR 0052
ENCODING 82
SWIDTH 680 0
DWIDTH 17 0
BBX 14 18 2 0
BITMAP
FF80
FFE0
FFF0
E0F0
E070
E070
E070
E0F0
FFE0
FFC0
FF80
E380
E3C0
E1E0
E0F0
F0F0
F078
F03C
ENDCHAR
STARTCHAR 0053
ENCODING 83
SWIDTH 600 0
DWIDTH 15 0
BBX 13 18 1 0
BITMAP
0FE0
3FF0
7FF0
7830
7000
7000
7800
7F00
3FC0
0FF0
01F0
0078
0078
0078
E078
FFF0
FFE0
3FC0
ENDCHAR
STARTCHAR 0054
ENCODING 84
SWIDTH 600 0
DWIDTH 15 0
BBX 15 18 0 0
BITMAP
FFFE
FFFE
FFFE
0380
0380
0380
0380
0380
0380
0380
0380
0380
0380
0380
0380
0380
0380
0380
ENDCHAR
STARTCHAR 0055
ENCODING 85
SWIDTH 720 0
DWIDTH 18 0
BBX 14 18 2 0
BITMAP
E03C
E03C
E03C
E03C
E03C
E03C
E03C
E03C
E03C
E03C
E03C
E03C
F03C
F03C
F038
7FF8
3FF0
1FE0
ENDCHAR
STARTCHAR 0056
ENCODING 86
SWIDTH 720 0
DWIDTH 18 0
BBX 17 18 0 0
BITMAP
F00780
700780
780700
380700
380F00
3C0E00
1C0E00
1C1E00
1E1C00
0E1C00
0E3C00
0F3800
073800
077000
03F000
03F000
03E000
01E000
ENDCHAR
STARTCHAR 0057
ENCODING 87
SWIDTH 1040 0
DWIDTH 26 0
BBX 25 18 0 0
BITMAP
F01C0380
701E0780
781E0780
783E0700
383F0700
383F0F00
3C370E00
1C730E00
1C738E00
1C739E00
1C639C00
0EE19C00
0EE1DC00
0EC1D800
0EC1F800
07C0F800
07C0F800
0780F000
ENDCHAR
STARTCHAR 0058
ENCODING 88
SWIDTH 680 0
DWIDTH 17 0
BBX 15 18 1 0
BITMAP
F03C
783C
3878
3C70
1EF0
1EE0
0FE0
07C0
0780
07C0
0FC0
1FE0
1CE0
3CF0
3878
7838
F03C
F01E
ENDCHAR
STARTCHAR 0059
ENCODING 89
SWIDTH 680 0
DWIDTH 17 0
BBX 15 18 1 0
BITMAP
F01E
F03C
783C
7878
3C70
1CF0
1EE0
0FE0
0FC0
0780
0780
0780
0780
0780
0780
0780
0780
0780
ENDCHAR
STARTCHAR 005A
ENCODING 90
SWIDTH 600 0
DWIDTH 15 0
BBX 13 18 1 0
BITMAP
7FF8
7FF8
7FF8
00F0
00E0
01E0
03C0
0380
0780
0F00
0E00
1E00
3C00
3800
7800
FFF8
FFF8
FFF8
ENDCHAR
STARTCHAR 0061
ENCODING 97
SWIDTH 600 0
DWIDTH 15 0
BBX 13 13 1 0
BITMAP
03C0
1FF8
3FF8
7878
7078
7078
F0F8
F0F8
F1F8
F3F8
7F78
7F38
3C38
ENDCHAR
STARTCHAR 0062
ENCODING 98
SWIDTH 600 0
DWIDTH 15 0
BBX 13 20 1 0
BITMAP
F000
7000
7000
7000
7000
7000
7000
71C0
77E0
7FF0
7CF0
7878
7078
7078
7078
7078
7070
79F0
7FE0
3FC0
ENDCHAR
STARTCHAR 0063
ENCODING 99
SWIDTH 480 0
DWIDTH 12 0
BBX 10 13 1 0
BITMAP
0700
1FC0
3FC0
7840
F000
F000
F000
F000
F000
F000
7DC0
3FC0
1FC0
ENDCHAR
STARTCHAR 0064
ENCODING 100
SWIDTH 600 0
DWIDTH 15 0
BBX 13 20 1 0
BITMAP
0078
0078
0078
0078
0078
0078
0078
0678
1FF8
3FF8
78F8
7078
F078
F078
F078
F078
F0F8
7FF8
7FB8
1F38
ENDCHAR
STARTCHAR 0065
ENCODING 101
SWIDTH 560 0
DWIDTH 14 0
BBX 11 13 1 0
BITMAP
0700
3FC0
7FC0
70E0
F0E0
FFE0
FFE0
FFE0
F000
F000
7DE0
3FE0
1FE0
ENDCHAR
STARTCHAR 0066
ENCODING 102
SWIDTH 400 0
DWIDTH 10 0
BBX 10 20 0 0
BITMAP
0380
0FC0
1FC0
1E40
1C00
1C00
1C00
1C00
FF80
FF80
1C00
1C00
1C00
1C00
1C00
1C00
1C00
1C00
1C00
1E00
ENDCHAR
STARTCHAR 0067
ENCODING 103
SWIDTH 560 0
DWIDTH 14 0
BBX 12 19 1 -6
BITMAP
0780
1FF0
3FF0
78F0
7070
F070
F070
F070
F0F0
F1F0
7FF0
7F70
3E70
00F0
00F0
21E0
7FE0
7FC0
0F00
ENDCHAR
STARTCHAR 0068
ENCODING 104
SWIDTH 600 0
DWIDTH 15 0
BBX 13 20 1 0
BITMAP
F000
7000
7000
7000
7000
7000
7000
71C0
77F0
7FF0
7EF0
7878
7078
7078
7078
7078
7078
7078
7078
7078
ENDCHAR
STARTCHAR 0069
ENCODING 105
SWIDTH 320 0
DWIDTH 8 0
BBX 4 19 2 0
BITMAP
E0
F0
F0
F0
00
00
00
F0
F0
F0
F0
F0
F0
F0
F0
F0
F0
F0
F0
ENDCHAR
STARTCHAR 006A
ENCODING 106
SWIDTH 320 0
DWIDTH 8 0
BBX 8 25 -2 -6
BITMAP
07
0F
0F
07
00
00
00
07
07
07
07
07
07
07
07
07
07
07
07
07
0F
8F
FE
FC
70
ENDCHAR
STARTCHAR 006B
ENCODING 107
SWIDTH 560 0
DWIDTH 14 0
BBX 12 20 1 0
BITMAP
F000
7000
7000
7000
7000
7000
7000
7000
71F0
73C0
7780
7700
7E00
7E00
7F00
7780
73C0
73E0
71E0
70F0
ENDCHAR
STARTCHAR 006C
ENCODING 108
SWIDTH 320 0
DWIDTH 8 0
BBX 4 20 2 0
BITMAP
F0
F0
F0
F0
F0
F0
F0
F0
F0
F0
F0
F0
F0
F0
F0
F0
F0
F0
F0
F0
ENDCHAR
STARTCHAR 006D
ENCODING 109
SWIDTH 840 0
DWIDTH 21 0
BBX 18 13 2 0
BITMAP
030600
EFDF80
FFFF80
F9F3C0
F1E3C0
E1E3C0
E1E3C0
E1E3C0
E1E3C0
E1E3C0
E1E3C0
E1E3C0
E1E3C0
ENDCHAR
STARTCHAR 006E
ENCODING 110
SWIDTH 600 0
DWIDTH 15 0
BBX 13 13 1 0
BITMAP
01C0
F7F0
7FF0
7EF0
7878
7078
7078
7078
7078
7078
7078
7078
7078
ENDCHAR
STARTCHAR 006F
ENCODING 111
SWIDTH 560 0
DWIDTH 14 0
BBX 12 13 1 0
BITMAP
0700
3FC0
7FE0
79E0
F0F0
F0F0
F070
F070
F0F0
F0F0
7FE0
3FC0
1F80
ENDCHAR
STARTCHAR 0070
ENCODING 112
SWIDTH 600 0
DWIDTH 15 0
BBX 13 19 1 -6
BITMAP
01C0
F7E0
7FF0
7CF0
7878
7078
7038
7078
7078
7070
7FF0
7FE0
77C0
7000
7000
7000
7000
7000
7000
ENDCHAR
STARTCHAR 0071
ENCODING 113
SWIDTH 600 0
DWIDTH 15 0
BBX 12 19 1 -6
BITMAP
0700
1FF0
3FF0
7CF0
7070
F070
F070
F070
F070
F0F0
7FF0
7FF0
3F70
0070
0070
0070
0070
0070
0070
ENDCHAR
STARTCHAR 0072
ENCODING 114
SWIDTH 480 0
DWIDTH 12 0
BBX 11 13 1 0
BITMAP
0180
F7C0
7FE0
7FE0
78E0
7800
7000
7000
7000
7000
7000
7000
7000
ENDCHAR
STARTCHAR 0073
ENCODING 115
SWIDTH 520 0
DWIDTH 13 0
BBX 11 13 1 0
BITMAP
0600
3FC0
7FC0
F0C0
F000
7E00
7F80
0FC0
01E0
41E0
7BC0
FFC0
7F80
ENDCHAR
STARTCHAR 0074
ENCODING 116
SWIDTH 440 0
DWIDTH 11 0
BBX 10 16 0 0
BITMAP
1C00
1C00
1C00
1C00
FFC0
FFC0
1C00
1C00
1C00
1C00
1C00
1C00
1C00
1FC0
1FC0
0FC0
ENDCHAR
STARTCHAR 0075
ENCODING 117
SWIDTH 600 0
DWIDTH 15 0
BBX 12 12 2 0
BITMAP
E0E0
E0E0
E0E0
E0E0
E0E0
E0E0
E0E0
E0E0
E1E0
FFF0
FFF0
7C70
ENDCHAR
STARTCHAR 0076
ENCODING 118
SWIDTH 520 0
DWIDTH 13 0
BBX 12 12 1 0
BITMAP
E0F0
F0E0
F0E0
71E0
79C0
39C0
3B80
3B80
1F80
1F00
0F00
0E00
ENDCHAR
STARTCHAR 0077
ENCODING 119
SWIDTH 760 0
DWIDTH 19 0
BBX 17 12 1 0
BITMAP
E1C380
E1E380
F3E380
73E780
736700
737700
777700
3F3600
3E3E00
3E3E00
1E3E00
1E1C00
ENDCHAR
STARTCHAR 0078
ENCODING 120
SWIDTH 560 0
DWIDTH 14 0
BBX 13 12 1 0
BITMAP
F0F0
78E0
3DE0
1FC0
1F80
0F00
0F80
1F80
3FC0
79E0
70F0
F078
ENDCHAR
STARTCHAR 0079
ENCODING 121
SWIDTH 520 0
DWIDTH 13 0
BBX 13 18 0 -6
BITMAP
7078
7870
3870
38F0
3CE0
1CE0
1CE0
0FC0
0FC0
0FC0
0780
0780
0700
0700
0F00
FE00
FC00
7000
ENDCHAR
STARTCHAR 007A
ENCODING 122
SWIDTH 520 0
DWIDTH 13 0
BBX 11 12 1 0
BITMAP
7FE0
7FE0
03C0
0780
0700
0E00
1E00
3C00
7800
7FE0
FFE0
FFE0
ENDCHAR
STARTCHAR 00B0
ENCODING 176
SWIDTH 360 0
DWIDTH 9 0
BBX 7 7 1 11
BITMAP
78
FC
C6
C6
C6
FC
78
ENDCHAR
ENDFONT
